<svg xmlns="http://www.w3.org/2000/svg" xmlns:xlink="http://www.w3.org/1999/xlink" contentStyleType="text/css" data-diagram-type="CLASS" height="535px" preserveAspectRatio="none" style="width:258px;height:535px;background:#FFFFFF;" version="1.1" viewBox="0 0 258 535" width="258px" zoomAndPan="magnify"><?plantuml 1.2026.3beta6?><defs/><g><g class="title" data-source-line="1"><text fill="#000000" font-family="sans-serif" font-size="14" font-weight="700" lengthAdjust="spacing" textLength="198.1396" x="26.6899" y="22.9951">Struttura dati levels.json</text></g><!--class Level--><g class="entity" data-qualified-name="Level" data-source-line="3" id="ent0002"><rect fill="#F1F1F1" height="129.4844" rx="2.5" ry="2.5" style="stroke:#181818;stroke-width:0.5;" width="203.9463" x="23.29" y="44.2969"/><ellipse cx="102.4126" cy="60.2969" fill="#ADD1B2" rx="11" ry="11" style="stroke:#181818;stroke-width:1;"/><path d="M105.3813,65.9375 Q104.8032,66.2344 104.1626,66.375 Q103.5219,66.5313 102.8188,66.5313 Q100.3188,66.5313 98.9907,64.8906 Q97.6782,63.2344 97.6782,60.1094 Q97.6782,56.9844 98.9907,55.3281 Q100.3188,53.6719 102.8188,53.6719 Q103.5219,53.6719 104.1626,53.8281 Q104.8188,53.9844 105.3813,54.2813 L105.3813,57 Q104.7563,56.4219 104.1626,56.1563 Q103.5688,55.875 102.9438,55.875 Q101.6001,55.875 100.9126,56.9531 Q100.2251,58.0156 100.2251,60.1094 Q100.2251,62.2031 100.9126,63.2813 Q101.6001,64.3438 102.9438,64.3438 Q103.5688,64.3438 104.1626,64.0781 Q104.7563,63.7969 105.3813,63.2188 L105.3813,65.9375 Z " fill="#000000"/><text fill="#000000" font-family="sans-serif" font-size="14" lengthAdjust="spacing" textLength="37.2012" x="122.9126" y="65.1436">Level</text><line style="stroke:#181818;stroke-width:0.5;" x1="24.29" x2="226.2363" y1="76.2969" y2="76.2969"/><text fill="#000000" font-family="sans-serif" font-size="14" lengthAdjust="spacing" textLength="61.7969" x="29.29" y="93.292">id : UUID</text><text fill="#000000" font-family="sans-serif" font-size="14" lengthAdjust="spacing" textLength="82.7695" x="29.29" y="109.5889">title : String</text><text fill="#000000" font-family="sans-serif" font-size="14" lengthAdjust="spacing" textLength="100.9805" x="29.29" y="125.8857">theory : String</text><text fill="#000000" font-family="sans-serif" font-size="14" lengthAdjust="spacing" textLength="124.0996" x="29.29" y="142.1826">createdAt : String</text><text fill="#000000" font-family="sans-serif" font-size="14" lengthAdjust="spacing" textLength="191.9463" x="29.29" y="158.4795">questions : List&lt;Question&gt;</text><line style="stroke:#181818;stroke-width:0.5;" x1="24.29" x2="226.2363" y1="165.7813" y2="165.7813"/></g><!--class Question--><g class="entity" data-qualified-name="Question" data-source-line="11" id="ent0003"><rect fill="#F1F1F1" height="145.7813" rx="2.5" ry="2.5" style="stroke:#181818;stroke-width:0.5;" width="236.5195" x="7" y="233.7769"/><ellipse cx="89.7012" cy="249.7769" fill="#ADD1B2" rx="11" ry="11" style="stroke:#181818;stroke-width:1;"/><path d="M92.6699,255.4175 Q92.0918,255.7144 91.4512,255.855 Q90.8105,256.0113 90.1074,256.0113 Q87.6074,256.0113 86.2793,254.3706 Q84.9668,252.7144 84.9668,249.5894 Q84.9668,246.4644 86.2793,244.8081 Q87.6074,243.1519 90.1074,243.1519 Q90.8105,243.1519 91.4512,243.3081 Q92.1074,243.4644 92.6699,243.7613 L92.6699,246.48 Q92.0449,245.9019 91.4512,245.6363 Q90.8574,245.355 90.2324,245.355 Q88.8887,245.355 88.2012,246.4331 Q87.5137,247.4956 87.5137,249.5894 Q87.5137,251.6831 88.2012,252.7613 Q88.8887,253.8238 90.2324,253.8238 Q90.8574,253.8238 91.4512,253.5581 Q92.0449,253.2769 92.6699,252.6988 L92.6699,255.4175 Z " fill="#000000"/><text fill="#000000" font-family="sans-serif" font-size="14" lengthAdjust="spacing" textLength="62.6172" x="110.2012" y="254.6236">Question</text><line style="stroke:#181818;stroke-width:0.5;" x1="8" x2="242.5195" y1="265.7769" y2="265.7769"/><text fill="#000000" font-family="sans-serif" font-size="14" lengthAdjust="spacing" textLength="44.8848" x="13" y="282.772">id : Int</text><text fill="#000000" font-family="sans-serif" font-size="14" lengthAdjust="spacing" textLength="115.8828" x="13" y="299.0689">question : String</text><text fill="#000000" font-family="sans-serif" font-size="14" lengthAdjust="spacing" textLength="156.5361" x="13" y="315.3657">correctAnswer : String</text><text fill="#000000" font-family="sans-serif" font-size="14" lengthAdjust="spacing" textLength="148.6543" x="13" y="331.6626">answers : List[String]</text><text fill="#000000" font-family="sans-serif" font-size="14" lengthAdjust="spacing" textLength="153.7949" x="13" y="347.9595">qType : QuestionType</text><text fill="#000000" font-family="sans-serif" font-size="14" lengthAdjust="spacing" textLength="224.5195" x="13" y="364.2564">validationQuery : Option[String]</text><line style="stroke:#181818;stroke-width:0.5;" x1="8" x2="242.5195" y1="371.5581" y2="371.5581"/></g><!--class QuestionType--><g class="entity" data-qualified-name="QuestionType" data-source-line="20" id="ent0004"><rect fill="#F1F1F1" height="80.5938" rx="2.5" ry="2.5" style="stroke:#181818;stroke-width:0.5;" width="128.9541" x="60.78" y="439.5669"/><ellipse cx="75.78" cy="455.5669" fill="#EB937F" rx="11" ry="11" style="stroke:#181818;stroke-width:1;"/><path d="M79.8894,461.5669 L72.1706,461.5669 L72.1706,449.1763 L79.8894,449.1763 L79.8894,451.3325 L74.6238,451.3325 L74.6238,454.0044 L79.3894,454.0044 L79.3894,456.1606 L74.6238,456.1606 L74.6238,459.4106 L79.8894,459.4106 L79.8894,461.5669 Z " fill="#000000"/><text fill="#000000" font-family="sans-serif" font-size="14" lengthAdjust="spacing" textLength="96.9541" x="89.78" y="460.4136">QuestionType</text><line style="stroke:#181818;stroke-width:0.5;" x1="61.78" x2="188.7341" y1="471.5669" y2="471.5669"/><text fill="#000000" font-family="sans-serif" font-size="14" lengthAdjust="spacing" textLength="103.0244" x="66.78" y="488.562">MultipleChoice</text><text fill="#000000" font-family="sans-serif" font-size="14" lengthAdjust="spacing" textLength="100.0098" x="66.78" y="504.8589">OpenQuestion</text><line style="stroke:#181818;stroke-width:0.5;" x1="61.78" x2="188.7341" y1="512.1606" y2="512.1606"/></g><!--reverse link Level to Question--><g class="link" data-entity-1="ent0002" data-entity-2="ent0003" data-link-type="composition" data-source-line="25" id="lnk5"><path codeLine="25" d="M125.26,186.0969 C125.26,205.0369 125.26,213.9069 125.26,233.3369" fill="none" id="Level-backto-Question" style="stroke:#181818;stroke-width:1;"/><polygon fill="#181818" points="125.26,174.0969,121.26,180.0969,125.26,186.0969,129.26,180.0969,125.26,174.0969" style="stroke:#181818;stroke-width:1;"/><text fill="#000000" font-family="sans-serif" font-size="13" lengthAdjust="spacing" textLength="8.271" x="116.8611" y="193.6531">1</text><text fill="#000000" font-family="sans-serif" font-size="13" lengthAdjust="spacing" textLength="6.5" x="118.9979" y="222.7059">*</text></g><!--link Question to QuestionType--><g class="link" data-entity-1="ent0003" data-entity-2="ent0004" data-link-type="dependency" data-source-line="26" id="lnk6"><path codeLine="26" d="M125.26,379.7769 C125.26,400.2469 125.26,415.7669 125.26,433.5069" fill="none" id="Question-to-QuestionType" style="stroke:#181818;stroke-width:1;"/><polygon fill="#181818" points="125.26,439.5069,129.26,430.5069,125.26,434.5069,121.26,430.5069,125.26,439.5069" style="stroke:#181818;stroke-width:1;"/></g><?plantuml-src LP11Ym8n38Nl_HLXZi8ix5L44FSYA2BgIJoKcR1cgUtOfeg8_zrcjBCpj-PBttj9cDWWRDb7vkWrr9e935xHXA-_uAnIbT4Xm58GF1G0rJ26_NxnazxSgiUY9_ihu8JEt_kaygWPwndtuILYO78s9BYam9FD1qpLCoTcz1-wiDpJ3aASzrZnp8OR-dv3joJ77DxyA2wxUoEJvnGf4xvgGt82PrEZNMJTIDKfqtXeutcWQoTSHSFK69oV75LYjMxGvbyYUr-m-2vWL9PGZ8hEGtMhbkLquFm2?></g></svg>