<svg xmlns="http://www.w3.org/2000/svg" xmlns:xlink="http://www.w3.org/1999/xlink" contentStyleType="text/css" data-diagram-type="CLASS" height="1240px" preserveAspectRatio="none" style="width:1762px;height:1240px;background:#FFFFFF;" version="1.1" viewBox="0 0 1762 1240" width="1762px" zoomAndPan="magnify"><?plantuml 1.2026.3beta6?><defs/><g><!--cluster prologfordummies--><g class="cluster" data-qualified-name="prologfordummies" data-source-line="15" id="ent0002"><rect fill="#FFFFFF" height="1219.39" style="stroke:#000000;stroke-width:1.5;" width="1741" x="7" y="7"/><text fill="#000000" font-family="sans-serif" font-size="14" font-style="italic" lengthAdjust="spacing" textLength="50.5518" x="852.2241" y="21.9951">&#171;Main&#187;</text><text fill="#000000" font-family="sans-serif" font-size="14" font-weight="700" lengthAdjust="spacing" textLength="145.3867" x="804.8066" y="38.292">prologfordummies</text></g><!--cluster view--><g class="cluster" data-qualified-name="prologfordummies.view" data-source-line="17" id="ent0003"><rect fill="#F5F5F5" height="123.26" style="stroke:#000000;stroke-width:1.5;" width="620" x="234" y="74"/><text fill="#000000" font-family="sans-serif" font-size="14" font-weight="700" lengthAdjust="spacing" textLength="36.3535" x="525.8232" y="88.9951">view</text></g><!--cluster controller--><g class="cluster" data-qualified-name="prologfordummies.controller" data-source-line="23" id="ent0009"><rect fill="#F5F5F5" height="351.6" style="stroke:#000000;stroke-width:1.5;" width="706" x="344" y="330.26"/><text fill="#000000" font-family="sans-serif" font-size="14" font-weight="700" lengthAdjust="spacing" textLength="77.0957" x="658.4521" y="345.2551">controller</text></g><!--cluster services--><g class="cluster" data-qualified-name="prologfordummies.services" data-source-line="31" id="ent0017"><rect fill="#F5F5F5" height="365.57" style="stroke:#000000;stroke-width:1.5;" width="658" x="888" y="821.84"/><text fill="#000000" font-family="sans-serif" font-size="14" font-weight="700" lengthAdjust="spacing" textLength="64.7842" x="1184.6079" y="836.8351">services</text></g><!--cluster model--><g class="cluster" data-qualified-name="prologfordummies.model" data-source-line="39" id="ent0025"><rect fill="#F5F5F5" height="379.53" style="stroke:#000000;stroke-width:1.5;" width="588" x="171" y="814.86"/><text fill="#000000" font-family="sans-serif" font-size="14" font-weight="700" lengthAdjust="spacing" textLength="48.5215" x="440.7393" y="829.8551">model</text></g><g class="entity" data-qualified-name="prologfordummies.GMN6" data-source-line="21" id="ent0007"><path d="M23.31,374.28 L23.31,414.5456 L168.6987,414.5456 L168.6987,384.28 L158.6987,374.28 L23.31,374.28" fill="#FEFFDD" style="stroke:#181818;stroke-width:0.5;"/><path d="M158.6987,374.28 L158.6987,384.28 L168.6987,384.28 L158.6987,374.28" fill="#FEFFDD" style="stroke:#181818;stroke-width:1;"/><text fill="#000000" font-family="sans-serif" font-size="13" lengthAdjust="spacing" textLength="124.3887" x="29.31" y="391.3469">Interfaccia ScalaFX</text><text fill="#000000" font-family="sans-serif" font-size="13" lengthAdjust="spacing" textLength="90.4858" x="29.31" y="406.4797">e navigazione</text></g><g class="entity" data-qualified-name="prologfordummies.GMN14" data-source-line="29" id="ent0015"><path d="M1600.24,616.58 L1600.24,656.8456 L1723.7546,656.8456 L1723.7546,626.58 L1713.7546,616.58 L1600.24,616.58" fill="#FEFFDD" style="stroke:#181818;stroke-width:0.5;"/><path d="M1713.7546,616.58 L1713.7546,626.58 L1723.7546,626.58 L1713.7546,616.58" fill="#FEFFDD" style="stroke:#181818;stroke-width:1;"/><text fill="#000000" font-family="sans-serif" font-size="13" lengthAdjust="spacing" textLength="102.5146" x="1606.24" y="633.6469">Gestione eventi</text><text fill="#000000" font-family="sans-serif" font-size="13" lengthAdjust="spacing" textLength="92.5171" x="1606.24" y="648.7797">e flussi utente</text></g><g class="entity" data-qualified-name="prologfordummies.GMN22" data-source-line="37" id="ent0023"><path d="M1603.6,1122.12 L1603.6,1162.3856 L1732.3959,1162.3856 L1732.3959,1132.12 L1722.3959,1122.12 L1603.6,1122.12" fill="#FEFFDD" style="stroke:#181818;stroke-width:0.5;"/><path d="M1722.3959,1122.12 L1722.3959,1132.12 L1732.3959,1132.12 L1722.3959,1122.12" fill="#FEFFDD" style="stroke:#181818;stroke-width:1;"/><text fill="#000000" font-family="sans-serif" font-size="13" lengthAdjust="spacing" textLength="107.7959" x="1609.6" y="1139.1869">Business Logic e</text><text fill="#000000" font-family="sans-serif" font-size="13" lengthAdjust="spacing" textLength="99.5186" x="1609.6" y="1154.3197">Astrazione Dati</text></g><g class="entity" data-qualified-name="prologfordummies.GMN29" data-source-line="44" id="ent0030"><path d="M22.66,1122.12 L22.66,1162.3856 L147.349,1162.3856 L147.349,1132.12 L137.349,1122.12 L22.66,1122.12" fill="#FEFFDD" style="stroke:#181818;stroke-width:0.5;"/><path d="M137.349,1122.12 L137.349,1132.12 L147.349,1132.12 L137.349,1122.12" fill="#FEFFDD" style="stroke:#181818;stroke-width:1;"/><text fill="#000000" font-family="sans-serif" font-size="13" lengthAdjust="spacing" textLength="103.689" x="28.66" y="1139.1869">Domain Objects</text><text fill="#000000" font-family="sans-serif" font-size="13" lengthAdjust="spacing" textLength="69.5513" x="28.66" y="1154.3197">Immutabili</text></g><!--class MenuPage--><g class="entity" data-qualified-name="prologfordummies.view.MenuPage" data-source-line="18" id="ent0004"><rect fill="#F1F1F1" height="42.2969" rx="2.5" ry="2.5" style="stroke:#181818;stroke-width:0.5;" width="78.96" x="257.52" y="123.98"/><text fill="#000000" font-family="sans-serif" font-size="14" lengthAdjust="spacing" textLength="72.96" x="260.52" y="141.9751">MenuPage</text><line style="stroke:#181818;stroke-width:0.5;" x1="258.52" x2="335.48" y1="150.2769" y2="150.2769"/><line style="stroke:#181818;stroke-width:0.5;" x1="258.52" x2="335.48" y1="158.2769" y2="158.2769"/></g><!--class UIComponents--><g class="entity" data-qualified-name="prologfordummies.view.UIComponents" data-source-line="19" id="ent0005"><rect fill="#F1F1F1" height="56.2656" rx="2.5" ry="2.5" style="stroke:#181818;stroke-width:0.5;" width="108.9492" x="536.53" y="117"/><text fill="#000000" font-family="sans-serif" font-size="12" font-style="italic" lengthAdjust="spacing" textLength="48.8027" x="566.6032" y="133.1387">&#171;utility&#187;</text><text fill="#000000" font-family="sans-serif" font-size="14" lengthAdjust="spacing" textLength="102.9492" x="539.53" y="148.9639">UIComponents</text><line style="stroke:#181818;stroke-width:0.5;" x1="537.53" x2="644.4792" y1="157.2656" y2="157.2656"/><line style="stroke:#181818;stroke-width:0.5;" x1="537.53" x2="644.4792" y1="165.2656" y2="165.2656"/></g><!--class LoginController--><g class="entity" data-qualified-name="prologfordummies.controller.LoginController" data-source-line="24" id="ent0010"><rect fill="#F1F1F1" height="42.2969" rx="2.5" ry="2.5" style="stroke:#181818;stroke-width:0.5;" width="113.1875" x="368.41" y="373.26"/><text fill="#000000" font-family="sans-serif" font-size="14" lengthAdjust="spacing" textLength="107.1875" x="371.41" y="391.2551">LoginController</text><line style="stroke:#181818;stroke-width:0.5;" x1="369.41" x2="480.5975" y1="399.5569" y2="399.5569"/><line style="stroke:#181818;stroke-width:0.5;" x1="369.41" x2="480.5975" y1="407.5569" y2="407.5569"/></g><!--class RegistrationController--><g class="entity" data-qualified-name="prologfordummies.controller.RegistrationController" data-source-line="25" id="ent0011"><rect fill="#F1F1F1" height="42.2969" rx="2.5" ry="2.5" style="stroke:#181818;stroke-width:0.5;" width="160.2256" x="681.89" y="373.26"/><text fill="#000000" font-family="sans-serif" font-size="14" lengthAdjust="spacing" textLength="154.2256" x="684.89" y="391.2551">RegistrationController</text><line style="stroke:#181818;stroke-width:0.5;" x1="682.89" x2="841.1156" y1="399.5569" y2="399.5569"/><line style="stroke:#181818;stroke-width:0.5;" x1="682.89" x2="841.1156" y1="407.5569" y2="407.5569"/></g><!--class MenuController--><g class="entity" data-qualified-name="prologfordummies.controller.MenuController" data-source-line="26" id="ent0012"><rect fill="#F1F1F1" height="42.2969" rx="2.5" ry="2.5" style="stroke:#181818;stroke-width:0.5;" width="113.6113" x="368.19" y="615.56"/><text fill="#000000" font-family="sans-serif" font-size="14" lengthAdjust="spacing" textLength="107.6113" x="371.19" y="633.5551">MenuController</text><line style="stroke:#181818;stroke-width:0.5;" x1="369.19" x2="480.8013" y1="641.8569" y2="641.8569"/><line style="stroke:#181818;stroke-width:0.5;" x1="369.19" x2="480.8013" y1="649.8569" y2="649.8569"/></g><!--class LevelController--><g class="entity" data-qualified-name="prologfordummies.controller.LevelController" data-source-line="27" id="ent0013"><rect fill="#F1F1F1" height="42.2969" rx="2.5" ry="2.5" style="stroke:#181818;stroke-width:0.5;" width="112.374" x="681.81" y="615.56"/><text fill="#000000" font-family="sans-serif" font-size="14" lengthAdjust="spacing" textLength="106.374" x="684.81" y="633.5551">LevelController</text><line style="stroke:#181818;stroke-width:0.5;" x1="682.81" x2="793.184" y1="641.8569" y2="641.8569"/><line style="stroke:#181818;stroke-width:0.5;" x1="682.81" x2="793.184" y1="649.8569" y2="649.8569"/></g><!--class UserService--><g class="entity" data-qualified-name="prologfordummies.services.UserService" data-source-line="32" id="ent0018"><rect fill="#F1F1F1" height="42.2969" rx="2.5" ry="2.5" style="stroke:#181818;stroke-width:0.5;" width="89.6514" x="935.17" y="864.84"/><text fill="#000000" font-family="sans-serif" font-size="14" font-style="italic" lengthAdjust="spacing" textLength="83.6514" x="938.17" y="882.8351">UserService</text><line style="stroke:#181818;stroke-width:0.5;" x1="936.17" x2="1023.8214" y1="891.1369" y2="891.1369"/><line style="stroke:#181818;stroke-width:0.5;" x1="936.17" x2="1023.8214" y1="899.1369" y2="899.1369"/></g><!--class UserRepository--><g class="entity" data-qualified-name="prologfordummies.services.UserRepository" data-source-line="33" id="ent0019"><rect fill="#F1F1F1" height="42.2969" rx="2.5" ry="2.5" style="stroke:#181818;stroke-width:0.5;" width="112.9824" x="1224.51" y="864.84"/><text fill="#000000" font-family="sans-serif" font-size="14" font-style="italic" lengthAdjust="spacing" textLength="106.9824" x="1227.51" y="882.8351">UserRepository</text><line style="stroke:#181818;stroke-width:0.5;" x1="1225.51" x2="1336.4924" y1="891.1369" y2="891.1369"/><line style="stroke:#181818;stroke-width:0.5;" x1="1225.51" x2="1336.4924" y1="899.1369" y2="899.1369"/></g><!--class LevelRepository--><g class="entity" data-qualified-name="prologfordummies.services.LevelRepository" data-source-line="34" id="ent0020"><rect fill="#F1F1F1" height="42.2969" rx="2.5" ry="2.5" style="stroke:#181818;stroke-width:0.5;" width="118.2734" x="911.86" y="1121.11"/><text fill="#000000" font-family="sans-serif" font-size="14" font-style="italic" lengthAdjust="spacing" textLength="112.2734" x="914.86" y="1139.1051">LevelRepository</text><line style="stroke:#181818;stroke-width:0.5;" x1="912.86" x2="1029.1334" y1="1147.4069" y2="1147.4069"/><line style="stroke:#181818;stroke-width:0.5;" x1="912.86" x2="1029.1334" y1="1155.4069" y2="1155.4069"/></g><!--class UserProgressRepository--><g class="entity" data-qualified-name="prologfordummies.services.UserProgressRepository" data-source-line="35" id="ent0021"><rect fill="#F1F1F1" height="42.2969" rx="2.5" ry="2.5" style="stroke:#181818;stroke-width:0.5;" width="173.5898" x="1230.21" y="1121.11"/><text fill="#000000" font-family="sans-serif" font-size="14" font-style="italic" lengthAdjust="spacing" textLength="167.5898" x="1233.21" y="1139.1051">UserProgressRepository</text><line style="stroke:#181818;stroke-width:0.5;" x1="1231.21" x2="1402.7998" y1="1147.4069" y2="1147.4069"/><line style="stroke:#181818;stroke-width:0.5;" x1="1231.21" x2="1402.7998" y1="1155.4069" y2="1155.4069"/></g><!--class User--><g class="entity" data-qualified-name="prologfordummies.model.User" data-source-line="40" id="ent0026"><rect fill="#F1F1F1" height="56.2656" rx="2.5" ry="2.5" style="stroke:#181818;stroke-width:0.5;" width="77.873" x="379.06" y="857.86"/><text fill="#000000" font-family="sans-serif" font-size="12" font-style="italic" lengthAdjust="spacing" textLength="75.873" x="380.06" y="873.9987">&#171;case class&#187;</text><text fill="#000000" font-family="sans-serif" font-size="14" lengthAdjust="spacing" textLength="31.9102" x="402.0414" y="889.8239">User</text><line style="stroke:#181818;stroke-width:0.5;" x1="380.06" x2="455.933" y1="898.1256" y2="898.1256"/><line style="stroke:#181818;stroke-width:0.5;" x1="380.06" x2="455.933" y1="906.1256" y2="906.1256"/></g><!--class Level--><g class="entity" data-qualified-name="prologfordummies.model.Level" data-source-line="41" id="ent0027"><rect fill="#F1F1F1" height="56.2656" rx="2.5" ry="2.5" style="stroke:#181818;stroke-width:0.5;" width="77.873" x="657.06" y="857.86"/><text fill="#000000" font-family="sans-serif" font-size="12" font-style="italic" lengthAdjust="spacing" textLength="75.873" x="658.06" y="873.9987">&#171;case class&#187;</text><text fill="#000000" font-family="sans-serif" font-size="14" lengthAdjust="spacing" textLength="37.2012" x="677.3959" y="889.8239">Level</text><line style="stroke:#181818;stroke-width:0.5;" x1="658.06" x2="733.933" y1="898.1256" y2="898.1256"/><line style="stroke:#181818;stroke-width:0.5;" x1="658.06" x2="733.933" y1="906.1256" y2="906.1256"/></g><!--class Question--><g class="entity" data-qualified-name="prologfordummies.model.Question" data-source-line="42" id="ent0028"><rect fill="#F1F1F1" height="56.2656" rx="2.5" ry="2.5" style="stroke:#181818;stroke-width:0.5;" width="77.873" x="379.06" y="1114.12"/><text fill="#000000" font-family="sans-serif" font-size="12" font-style="italic" lengthAdjust="spacing" textLength="75.873" x="380.06" y="1130.2587">&#171;case class&#187;</text><text fill="#000000" font-family="sans-serif" font-size="14" lengthAdjust="spacing" textLength="62.6172" x="386.6879" y="1146.0839">Question</text><line style="stroke:#181818;stroke-width:0.5;" x1="380.06" x2="455.933" y1="1154.3856" y2="1154.3856"/><line style="stroke:#181818;stroke-width:0.5;" x1="380.06" x2="455.933" y1="1162.3856" y2="1162.3856"/></g><!--link view to GMN6--><g class="link" data-entity-1="ent0003" data-entity-2="ent0007" data-link-type="association" data-source-line="21" id="lnk8"><path d="M846,197.3552 C846,197.5902 846,197.8255 846,198.061 C846,198.532 846,199.0039 846,199.4764 C846,200.4215 846,201.3695 846,202.3196 C846,206.1199 846,209.9531 846,213.765 C846,244.26 846,273.39 846,273.39 C846,273.39 96,273.39 96,273.39 C96,273.39 96,339.35 96,373.88" fill="none" id="view-GMN6" style="stroke:#181818;stroke-width:1;stroke-dasharray:7,7;"/></g><!--link controller to GMN14--><g class="link" data-entity-1="ent0009" data-entity-2="ent0015" data-link-type="association" data-source-line="29" id="lnk16"><path d="M1050.4747,637.39 C1050.9759,637.39 1051.4982,637.39 1052.0413,637.39 C1054.2137,637.39 1056.7185,637.39 1059.5363,637.39 C1070.8073,637.39 1087.0839,637.39 1107.1066,637.39 C1147.1519,637.39 1202.1812,637.39 1262.1175,637.39 C1381.99,637.39 1521.49,637.39 1600,637.39" fill="none" id="controller-GMN14" style="stroke:#181818;stroke-width:1;stroke-dasharray:7,7;"/></g><!--link services to GMN22--><g class="link" data-entity-1="ent0017" data-entity-2="ent0023" data-link-type="association" data-source-line="37" id="lnk24"><path d="M1546.1912,1142.39 C1546.3233,1142.39 1546.4568,1142.39 1546.5916,1142.39 C1547.6703,1142.39 1548.8368,1142.39 1550.083,1142.39 C1552.5755,1142.39 1555.3872,1142.39 1558.4538,1142.39 C1570.72,1142.39 1587.065,1142.39 1603.38,1142.39" fill="none" id="services-GMN22" style="stroke:#181818;stroke-width:1;stroke-dasharray:7,7;"/></g><!--link model to GMN29--><g class="link" data-entity-1="ent0025" data-entity-2="ent0030" data-link-type="association" data-source-line="44" id="lnk31"><path d="M170.9786,1142.39 C170.9367,1142.39 170.8947,1142.39 170.8525,1142.39 C170.5153,1142.39 170.1694,1142.39 169.815,1142.39 C164.145,1142.39 156.32,1142.39 147.7,1142.39" fill="none" id="model-GMN29" style="stroke:#181818;stroke-width:1;stroke-dasharray:7,7;"/></g><!--link view to controller--><g class="link" data-entity-1="ent0003" data-entity-2="ent0009" data-link-type="dependency" data-source-line="47" id="lnk32"><path codeLine="47" d="M854.0475,145.39 C855.3194,145.39 856.727,145.39 858.2596,145.39 C864.3898,145.39 872.5183,145.39 881.9491,145.39 C900.8106,145.39 924.8812,145.39 948.5925,145.39 C996.015,145.39 1042,145.39 1042,145.39 C1042,145.39 1042,203.815 1042,264.0663 C1042,279.1291 1042,294.306 1042,308.7128 C1042,315.9161 1042,316.9269 1042,323.6347" fill="none" id="view-to-controller" style="stroke:#181818;stroke-width:1;"/><polygon fill="#181818" points="1042,329.6347,1046,320.6347,1042,324.6347,1038,320.6347,1042,329.6347" style="stroke:#181818;stroke-width:1;"/><text fill="#000000" font-family="sans-serif" font-size="13" lengthAdjust="spacing" textLength="94.9673" x="947" y="167.8969">Innesca eventi</text></g><!--link controller to services--><g class="link" data-entity-1="ent0009" data-entity-2="ent0017" data-link-type="dependency" data-source-line="48" id="lnk33"><path codeLine="48" d="M1050.4914,395.39 C1051.0417,395.39 1051.6171,395.39 1052.2172,395.39 C1053.4175,395.39 1054.7166,395.39 1056.111,395.39 C1058.8996,395.39 1062.0689,395.39 1065.5893,395.39 C1079.6709,395.39 1099.3702,395.39 1122.7948,395.39 C1169.6441,395.39 1231.3944,395.39 1292.9063,395.39 C1415.93,395.39 1538,395.39 1538,395.39 C1538,395.39 1538,512.3575 1538,632.0675 C1538,691.9225 1538,752.4631 1538,799.4113 C1538,805.2798 1538,810.9359 1538,816.3518 C1538,817.7057 1538,813.0447 1538,814.3682" fill="none" id="controller-to-services" style="stroke:#181818;stroke-width:1;"/><polygon fill="#181818" points="1538,820.3682,1542,811.3682,1538,815.3682,1534,811.3682,1538,820.3682" style="stroke:#181818;stroke-width:1;"/><text fill="#000000" font-family="sans-serif" font-size="13" lengthAdjust="spacing" textLength="98.5664" x="1435.95" y="391.4569">Richiede logica</text></g><!--reverse link model to services--><g class="link" data-entity-1="ent0025" data-entity-2="ent0017" data-link-type="dependency" data-source-line="49" id="lnk35"><path codeLine="49" d="M218.76,808.3869 C218.76,805.8356 218.76,808.4603 218.76,806.2338 C218.76,797.3275 218.76,791.39 218.76,791.39 C218.76,791.39 1470.4,791.39 1470.4,791.39 C1470.4,791.39 1470.4,797.3275 1470.4,806.2338 C1470.4,810.6869 1470.4,815.8822 1470.4,821.4486" fill="none" id="model-backto-services" style="stroke:#181818;stroke-width:1;"/><polygon fill="#181818" points="218.76,814.3869,222.76,805.3869,218.76,809.3869,214.76,805.3869,218.76,814.3869" style="stroke:#181818;stroke-width:1;"/><text fill="#000000" font-family="sans-serif" font-size="13" lengthAdjust="spacing" textLength="97.6143" x="760.47" y="787.4569">Gestisce entit&#224;</text></g><!--link controller to model--><g class="link" data-entity-1="ent0009" data-entity-2="ent0025" data-link-type="dependency" data-source-line="52" id="lnk36"><path codeLine="52" d="M980,682.2483 C980,683.1518 980,684.0443 980,684.9255 C980,688.4503 980,691.7938 980,694.9359 C980,701.2201 980,706.6986 980,711.2103 C980,720.2338 980,725.39 980,725.39 C980,725.39 179,725.39 179,725.39 C179,725.39 179,762.465 179,800.9888 C179,803.3965 179,805.8099 179,808.2202 C179,809.4254 179,810.6298 179,811.8324 C179,812.4337 179,813.0345 179,813.6347 C179,813.9348 179,808.2348 179,808.5346" fill="none" id="controller-to-model" style="stroke:#181818;stroke-width:1;stroke-dasharray:7,7;"/><polygon fill="#181818" points="179,814.5346,183,805.5346,179,809.5346,175,805.5346,179,814.5346" style="stroke:#181818;stroke-width:1;"/><text fill="#000000" font-family="sans-serif" font-size="13" lengthAdjust="spacing" textLength="95.5322" x="599.53" y="721.4569">Aggiorna stato</text></g><?plantuml-src VPJ1Rjim38RlVWh2E_JKeXYm7OOYGDEWGu0MwreKso4NHgOThh9aI7AAREYxx5tsOgDa9tMTf0uW8E97YZz9oJ-nQT1X3JviDCdgM8MsrfdVMHfKJrZHGm8SgO2cqZG0D1iAcuR0kh2o0uDVOM6VsLHGelP35sCByjJ0n_FpmQv3yxI_svz_XqKHGtq-px8Jc579Xd-pDGG5CIYhhUDzB_YJWNnJ-LSvsvhYAe8N5xV8PZA17oiEr17M5UII5QPQyEmboxP1yiQ9eIg5QUkQoUUm2z4Ta9OTlcPwpk73zQVuwuduAOtUmosPzawuqVRZ_ChMZGWomKluDh3ci9bC4lQILcC3mTA6O6km9SHZu0lCJI1NebACyA1Gu_NFXPJ5u9ehJ2NAtgQdh0aYI9CxdkIDhTXSxS2HzPugbbd18D6FGb7dKUCDhKcFh0T5lYOhKh-I3wdducq2HvcbRhrdQ8DiZ8LwScjMiLtxChcl6i6ZO0yTUSHwJutr7ApR702IadU96EBEsSgHzoFmeEHjsY9usdgvNNq_5D32NCQwTuC_a_gF5DToiVJnhiPCPBOKUkfs-l4QzULzv7lRTU4GTL1FIah4p6mjTmQ-BN_9A-8NPbxNRS2bp7cduaJcIYTj31KvT6h5QjKr9StwgJmdvdJoTYRokP4AAUnd8a_uWDWw3QgQtqjSfe90nx9YvxC3JZMLGJosUUTfxBnqCXuG_ltDN-_yQyu4qXY_9kTHqpY9ixD1kCkgOkiCodEBmURPoty0?></g></svg>