<svg xmlns="http://www.w3.org/2000/svg" xmlns:xlink="http://www.w3.org/1999/xlink" contentStyleType="text/css" data-diagram-type="CLASS" height="314px" preserveAspectRatio="none" style="width:620px;height:314px;background:#FFFFFF;" version="1.1" viewBox="0 0 620 314" width="620px" zoomAndPan="magnify"><?plantuml 1.2026.3beta6?><defs/><g><g class="title" data-source-line="1"><text fill="#000000" font-family="sans-serif" font-size="14" font-weight="700" lengthAdjust="spacing" textLength="270.9697" x="171.0151" y="22.9951">Schema dati - users_progress.json</text></g><!--cluster users_progress--><g class="cluster" data-qualified-name="users_progress" data-source-line="9" id="ent0004"><rect fill="none" height="255.75" rx="2.5" ry="2.5" style="stroke:#000000;stroke-width:1.5;" width="599" x="7" y="44.2969"/><text fill="#000000" font-family="sans-serif" font-size="14" font-weight="700" lengthAdjust="spacing" textLength="119.6631" x="246.6685" y="59.292">users_progress</text></g><!--cluster json--><g class="cluster" data-qualified-name="users_progress.json" data-source-line="7" id="ent0002"><rect fill="#F5F5F5" height="188.75" rx="2.5" ry="2.5" style="stroke:#000000;stroke-width:1.5;" width="551" x="31" y="87.2969"/><text fill="#000000" font-family="sans-serif" font-size="14" font-weight="700" lengthAdjust="spacing" textLength="32.7168" x="290.1416" y="102.292">json</text></g><!--class UserProgress--><g class="entity" data-qualified-name="users_progress.json.UserProgress" data-source-line="9" id="ent0003"><rect fill="#F1F1F1" height="88.8594" rx="2.5" ry="2.5" style="stroke:#181818;stroke-width:0.5;" width="208.7588" x="46.62" y="146.7469"/><ellipse cx="100.4906" cy="166.8797" fill="#ADD1B2" rx="11" ry="11" style="stroke:#181818;stroke-width:1;"/><path d="M103.4594,172.5203 Q102.8812,172.8172 102.2406,172.9578 Q101.6,173.1141 100.8969,173.1141 Q98.3969,173.1141 97.0687,171.4734 Q95.7562,169.8172 95.7562,166.6922 Q95.7562,163.5672 97.0687,161.9109 Q98.3969,160.2547 100.8969,160.2547 Q101.6,160.2547 102.2406,160.4109 Q102.8969,160.5672 103.4594,160.8641 L103.4594,163.5828 Q102.8344,163.0047 102.2406,162.7391 Q101.6469,162.4578 101.0219,162.4578 Q99.6781,162.4578 98.9906,163.5359 Q98.3031,164.5984 98.3031,166.6922 Q98.3031,168.7859 98.9906,169.8641 Q99.6781,170.9266 101.0219,170.9266 Q101.6469,170.9266 102.2406,170.6609 Q102.8344,170.3797 103.4594,169.8016 L103.4594,172.5203 Z " fill="#000000"/><text fill="#000000" font-family="sans-serif" font-size="12" font-style="italic" lengthAdjust="spacing" textLength="80.0098" x="127.2445" y="162.8855">&#171;json object&#187;</text><text fill="#000000" font-family="sans-serif" font-size="14" lengthAdjust="spacing" textLength="92.5176" x="120.9906" y="178.7107">UserProgress</text><line style="stroke:#181818;stroke-width:0.5;" x1="47.62" x2="254.3788" y1="187.0125" y2="187.0125"/><text fill="#000000" font-family="sans-serif" font-size="14" lengthAdjust="spacing" textLength="92.5723" x="52.62" y="204.0076">userId : UUID</text><text fill="#000000" font-family="sans-serif" font-size="14" lengthAdjust="spacing" textLength="196.7588" x="52.62" y="220.3045">history : List&lt;HistoryEntry&gt;</text><line style="stroke:#181818;stroke-width:0.5;" x1="47.62" x2="254.3788" y1="227.6063" y2="227.6063"/></g><!--class HistoryEntry--><g class="entity" data-qualified-name="users_progress.json.HistoryEntry" data-source-line="14" id="ent0005"><rect fill="#F1F1F1" height="137.75" rx="2.5" ry="2.5" style="stroke:#181818;stroke-width:0.5;" width="276.1201" x="289.94" y="122.2969"/><ellipse cx="380.2222" cy="142.4297" fill="#ADD1B2" rx="11" ry="11" style="stroke:#181818;stroke-width:1;"/><path d="M383.191,148.0703 Q382.6129,148.3672 381.9722,148.5078 Q381.3316,148.6641 380.6285,148.6641 Q378.1285,148.6641 376.8004,147.0234 Q375.4879,145.3672 375.4879,142.2422 Q375.4879,139.1172 376.8004,137.4609 Q378.1285,135.8047 380.6285,135.8047 Q381.3316,135.8047 381.9722,135.9609 Q382.6285,136.1172 383.191,136.4141 L383.191,139.1328 Q382.566,138.5547 381.9722,138.2891 Q381.3785,138.0078 380.7535,138.0078 Q379.4097,138.0078 378.7222,139.0859 Q378.0347,140.1484 378.0347,142.2422 Q378.0347,144.3359 378.7222,145.4141 Q379.4097,146.4766 380.7535,146.4766 Q381.3785,146.4766 381.9722,146.2109 Q382.566,145.9297 383.191,145.3516 L383.191,148.0703 Z " fill="#000000"/><text fill="#000000" font-family="sans-serif" font-size="12" font-style="italic" lengthAdjust="spacing" textLength="80.0098" x="404.2452" y="138.4355">&#171;json object&#187;</text><text fill="#000000" font-family="sans-serif" font-size="14" lengthAdjust="spacing" textLength="87.0557" x="400.7222" y="154.2607">HistoryEntry</text><line style="stroke:#181818;stroke-width:0.5;" x1="290.94" x2="565.0601" y1="162.5625" y2="162.5625"/><text fill="#000000" font-family="sans-serif" font-size="14" lengthAdjust="spacing" textLength="95.3271" x="295.94" y="179.5576">levelId : UUID</text><text fill="#000000" font-family="sans-serif" font-size="14" lengthAdjust="spacing" textLength="125.583" x="295.94" y="195.8545">quizAttempts : Int</text><text fill="#000000" font-family="sans-serif" font-size="14" lengthAdjust="spacing" textLength="120.0527" x="295.94" y="212.1514">quizCorrects : Int</text><text fill="#000000" font-family="sans-serif" font-size="14" lengthAdjust="spacing" textLength="159.5986" x="295.94" y="228.4482">timeSpentMinutes : Int</text><line style="stroke:#181818;stroke-width:0.5;" x1="290.94" x2="565.0601" y1="235.75" y2="235.75"/><text fill="#000000" font-family="sans-serif" font-size="14" lengthAdjust="spacing" textLength="264.1201" x="295.94" y="252.7451">completedAt : String (ISO timestamp)</text></g><?plantuml-src VP3BJiCm44Nt_efHsS02TjsWA59LG8q40YdA6hd9D77h5vu9AA3yEtQ9gl0GuuqzzyozjbcnHYZh3es4HhA2I-W90ptxuDg0H5TxSbO8EYZhPP06lAmFiiMIXpWPi6PfMuqpO1k1DhZUDckdNO2pksFD2EfauzwKRM4dDQ4GaoSi_iXUH8DbMl0X1CIgjII2Af9F4mTPbaXmstsyJvv74gPAXaK3rr1LnSsfsobY5uROle-xRFDrlBKSXlm8ZVEekVnFbCPNrB-pQcUyHiPcnL4gEQHtdnVb8x0oI2oDlpZ1BxrwNp6ZyKoHBYn_azOkf1__AIMZqgFb1sLxnhayYl4J?></g></svg>